<mxfile host="app.diagrams.net" agent="Mozilla/5.0 (Windows NT 10.0; Win64; x64) AppleWebKit/537.36 (KHTML, like Gecko) Chrome/135.0.0.0 Safari/537.36" version="26.2.12">
  <diagram name="Page-1" id="Y5PaYecPGq5qy4q5mESf">
    <mxGraphModel dx="1428" dy="743" grid="1" gridSize="10" guides="1" tooltips="1" connect="1" arrows="1" fold="1" page="1" pageScale="1" pageWidth="827" pageHeight="1169" math="0" shadow="0">
      <root>
        <mxCell id="0" />
        <mxCell id="1" parent="0" />
        <mxCell id="ZCiaga0Yp50tMM73B_RX-8" value="" style="edgeStyle=orthogonalEdgeStyle;rounded=0;orthogonalLoop=1;jettySize=auto;html=1;" edge="1" parent="1" source="ZCiaga0Yp50tMM73B_RX-1" target="ZCiaga0Yp50tMM73B_RX-2">
          <mxGeometry relative="1" as="geometry" />
        </mxCell>
        <mxCell id="ZCiaga0Yp50tMM73B_RX-1" value="START" style="rounded=1;whiteSpace=wrap;html=1;" vertex="1" parent="1">
          <mxGeometry x="340" y="40" width="120" height="60" as="geometry" />
        </mxCell>
        <mxCell id="ZCiaga0Yp50tMM73B_RX-10" value="" style="edgeStyle=orthogonalEdgeStyle;rounded=0;orthogonalLoop=1;jettySize=auto;html=1;" edge="1" parent="1" source="ZCiaga0Yp50tMM73B_RX-2" target="ZCiaga0Yp50tMM73B_RX-9">
          <mxGeometry relative="1" as="geometry" />
        </mxCell>
        <mxCell id="ZCiaga0Yp50tMM73B_RX-2" value="Generate random word" style="rounded=1;whiteSpace=wrap;html=1;" vertex="1" parent="1">
          <mxGeometry x="340" y="130" width="120" height="50" as="geometry" />
        </mxCell>
        <mxCell id="ZCiaga0Yp50tMM73B_RX-20" value="" style="edgeStyle=orthogonalEdgeStyle;rounded=0;orthogonalLoop=1;jettySize=auto;html=1;" edge="1" parent="1" source="ZCiaga0Yp50tMM73B_RX-9" target="ZCiaga0Yp50tMM73B_RX-19">
          <mxGeometry relative="1" as="geometry" />
        </mxCell>
        <mxCell id="ZCiaga0Yp50tMM73B_RX-9" value="Generate blanks pattern&amp;nbsp;" style="whiteSpace=wrap;html=1;rounded=1;" vertex="1" parent="1">
          <mxGeometry x="340" y="210" width="120" height="50" as="geometry" />
        </mxCell>
        <mxCell id="ZCiaga0Yp50tMM73B_RX-23" value="" style="edgeStyle=orthogonalEdgeStyle;rounded=0;orthogonalLoop=1;jettySize=auto;html=1;" edge="1" parent="1" source="ZCiaga0Yp50tMM73B_RX-11" target="ZCiaga0Yp50tMM73B_RX-22">
          <mxGeometry relative="1" as="geometry" />
        </mxCell>
        <mxCell id="ZCiaga0Yp50tMM73B_RX-26" value="" style="edgeStyle=orthogonalEdgeStyle;rounded=0;orthogonalLoop=1;jettySize=auto;html=1;" edge="1" parent="1" source="ZCiaga0Yp50tMM73B_RX-11" target="ZCiaga0Yp50tMM73B_RX-25">
          <mxGeometry relative="1" as="geometry" />
        </mxCell>
        <mxCell id="ZCiaga0Yp50tMM73B_RX-11" value="Is the letter correct?" style="rhombus;whiteSpace=wrap;html=1;rounded=1;" vertex="1" parent="1">
          <mxGeometry x="355" y="380" width="90" height="85" as="geometry" />
        </mxCell>
        <mxCell id="ZCiaga0Yp50tMM73B_RX-15" value="Yes" style="text;html=1;align=center;verticalAlign=middle;resizable=0;points=[];autosize=1;strokeColor=none;fillColor=none;" vertex="1" parent="1">
          <mxGeometry x="230" y="450" width="40" height="30" as="geometry" />
        </mxCell>
        <mxCell id="ZCiaga0Yp50tMM73B_RX-18" value="No" style="text;html=1;align=center;verticalAlign=middle;resizable=0;points=[];autosize=1;strokeColor=none;fillColor=none;" vertex="1" parent="1">
          <mxGeometry x="550" y="450" width="40" height="30" as="geometry" />
        </mxCell>
        <mxCell id="ZCiaga0Yp50tMM73B_RX-21" value="" style="edgeStyle=orthogonalEdgeStyle;rounded=0;orthogonalLoop=1;jettySize=auto;html=1;" edge="1" parent="1" source="ZCiaga0Yp50tMM73B_RX-19" target="ZCiaga0Yp50tMM73B_RX-11">
          <mxGeometry relative="1" as="geometry" />
        </mxCell>
        <mxCell id="ZCiaga0Yp50tMM73B_RX-19" value="Ask the user to guess the letter" style="whiteSpace=wrap;html=1;rounded=1;" vertex="1" parent="1">
          <mxGeometry x="340" y="300" width="120" height="35" as="geometry" />
        </mxCell>
        <mxCell id="ZCiaga0Yp50tMM73B_RX-28" value="" style="edgeStyle=orthogonalEdgeStyle;rounded=0;orthogonalLoop=1;jettySize=auto;html=1;" edge="1" parent="1" source="ZCiaga0Yp50tMM73B_RX-22" target="ZCiaga0Yp50tMM73B_RX-27">
          <mxGeometry relative="1" as="geometry" />
        </mxCell>
        <mxCell id="ZCiaga0Yp50tMM73B_RX-22" value="Replace the blank with the letter" style="whiteSpace=wrap;html=1;rounded=1;" vertex="1" parent="1">
          <mxGeometry x="220" y="520" width="120" height="40" as="geometry" />
        </mxCell>
        <mxCell id="ZCiaga0Yp50tMM73B_RX-30" value="" style="edgeStyle=orthogonalEdgeStyle;rounded=0;orthogonalLoop=1;jettySize=auto;html=1;" edge="1" parent="1" source="ZCiaga0Yp50tMM73B_RX-25" target="ZCiaga0Yp50tMM73B_RX-29">
          <mxGeometry relative="1" as="geometry" />
        </mxCell>
        <mxCell id="ZCiaga0Yp50tMM73B_RX-25" value="Lose a life" style="whiteSpace=wrap;html=1;rounded=1;" vertex="1" parent="1">
          <mxGeometry x="480" y="520" width="120" height="40" as="geometry" />
        </mxCell>
        <mxCell id="ZCiaga0Yp50tMM73B_RX-32" value="" style="edgeStyle=orthogonalEdgeStyle;rounded=0;orthogonalLoop=1;jettySize=auto;html=1;" edge="1" parent="1" source="ZCiaga0Yp50tMM73B_RX-33" target="ZCiaga0Yp50tMM73B_RX-31">
          <mxGeometry relative="1" as="geometry" />
        </mxCell>
        <mxCell id="ZCiaga0Yp50tMM73B_RX-38" value="" style="edgeStyle=orthogonalEdgeStyle;rounded=0;orthogonalLoop=1;jettySize=auto;html=1;entryX=0;entryY=0.5;entryDx=0;entryDy=0;" edge="1" parent="1" source="ZCiaga0Yp50tMM73B_RX-27" target="ZCiaga0Yp50tMM73B_RX-19">
          <mxGeometry relative="1" as="geometry">
            <mxPoint x="140" y="320" as="targetPoint" />
            <Array as="points">
              <mxPoint x="141" y="620" />
              <mxPoint x="141" y="318" />
            </Array>
          </mxGeometry>
        </mxCell>
        <mxCell id="ZCiaga0Yp50tMM73B_RX-27" value="Are all the blanks filled?" style="whiteSpace=wrap;html=1;rounded=1;" vertex="1" parent="1">
          <mxGeometry x="220" y="600" width="120" height="40" as="geometry" />
        </mxCell>
        <mxCell id="ZCiaga0Yp50tMM73B_RX-34" value="" style="edgeStyle=orthogonalEdgeStyle;rounded=0;orthogonalLoop=1;jettySize=auto;html=1;" edge="1" parent="1" source="ZCiaga0Yp50tMM73B_RX-29" target="ZCiaga0Yp50tMM73B_RX-33">
          <mxGeometry relative="1" as="geometry" />
        </mxCell>
        <mxCell id="ZCiaga0Yp50tMM73B_RX-40" value="" style="edgeStyle=orthogonalEdgeStyle;rounded=0;orthogonalLoop=1;jettySize=auto;html=1;entryX=1;entryY=0.5;entryDx=0;entryDy=0;" edge="1" parent="1" source="ZCiaga0Yp50tMM73B_RX-29" target="ZCiaga0Yp50tMM73B_RX-19">
          <mxGeometry relative="1" as="geometry">
            <mxPoint x="670" y="320" as="targetPoint" />
            <Array as="points">
              <mxPoint x="671" y="620" />
              <mxPoint x="671" y="318" />
            </Array>
          </mxGeometry>
        </mxCell>
        <mxCell id="ZCiaga0Yp50tMM73B_RX-29" value="Have they run out of lives?" style="whiteSpace=wrap;html=1;rounded=1;" vertex="1" parent="1">
          <mxGeometry x="480" y="600" width="120" height="40" as="geometry" />
        </mxCell>
        <mxCell id="ZCiaga0Yp50tMM73B_RX-31" value="GAME OVER" style="whiteSpace=wrap;html=1;rounded=1;" vertex="1" parent="1">
          <mxGeometry x="344" y="710" width="120" height="60" as="geometry" />
        </mxCell>
        <mxCell id="ZCiaga0Yp50tMM73B_RX-35" value="" style="edgeStyle=orthogonalEdgeStyle;rounded=0;orthogonalLoop=1;jettySize=auto;html=1;" edge="1" parent="1" source="ZCiaga0Yp50tMM73B_RX-27" target="ZCiaga0Yp50tMM73B_RX-33">
          <mxGeometry relative="1" as="geometry">
            <mxPoint x="280" y="640" as="sourcePoint" />
            <mxPoint x="400" y="760" as="targetPoint" />
          </mxGeometry>
        </mxCell>
        <mxCell id="ZCiaga0Yp50tMM73B_RX-33" value="" style="shape=waypoint;sketch=0;size=6;pointerEvents=1;points=[];fillColor=default;resizable=0;rotatable=0;perimeter=centerPerimeter;snapToPoint=1;rounded=1;" vertex="1" parent="1">
          <mxGeometry x="394" y="700" width="20" height="20" as="geometry" />
        </mxCell>
        <mxCell id="ZCiaga0Yp50tMM73B_RX-36" value="Yes" style="text;html=1;align=center;verticalAlign=middle;resizable=0;points=[];autosize=1;strokeColor=none;fillColor=none;" vertex="1" parent="1">
          <mxGeometry x="384" y="585" width="40" height="30" as="geometry" />
        </mxCell>
        <mxCell id="ZCiaga0Yp50tMM73B_RX-42" value="No" style="text;html=1;align=center;verticalAlign=middle;resizable=0;points=[];autosize=1;strokeColor=none;fillColor=none;" vertex="1" parent="1">
          <mxGeometry x="160" y="585" width="40" height="30" as="geometry" />
        </mxCell>
        <mxCell id="ZCiaga0Yp50tMM73B_RX-43" value="No" style="text;html=1;align=center;verticalAlign=middle;resizable=0;points=[];autosize=1;strokeColor=none;fillColor=none;" vertex="1" parent="1">
          <mxGeometry x="620" y="585" width="40" height="30" as="geometry" />
        </mxCell>
      </root>
    </mxGraphModel>
  </diagram>
</mxfile>
